<svg width="40" height="40" viewBox="0 0 40 40" fill="none" xmlns="http://www.w3.org/2000/svg">
<circle cx="20" cy="20" r="20" fill="#232323"/>
<path d="M26.6253 18.6253H21.3747V13.3747C21.3747 13.0101 21.2299 12.6605 20.9721 12.4027C20.7143 12.1448 20.3646 12 20 12C19.6354 12 19.2857 12.1448 19.0279 12.4027C18.7701 12.6605 18.6253 13.0101 18.6253 13.3747V18.6253H13.3747C13.0101 18.6253 12.6605 18.7701 12.4027 19.0279C12.1448 19.2857 12 19.6354 12 20C12 20.3646 12.1448 20.7143 12.4027 20.9721C12.6605 21.2299 13.0101 21.3747 13.3747 21.3747H18.6253V26.6253C18.6253 26.8058 18.6608 26.9846 18.7299 27.1513C18.799 27.3181 18.9003 27.4697 19.0279 27.5973C19.1556 27.725 19.3071 27.8263 19.4739 27.8954C19.6407 27.9644 19.8195 28 20 28C20.1805 28 20.3593 27.9644 20.5261 27.8954C20.6929 27.8263 20.8444 27.725 20.9721 27.5973C21.0997 27.4697 21.201 27.3181 21.2701 27.1513C21.3392 26.9846 21.3747 26.8058 21.3747 26.6253V21.3747H26.6253C26.9899 21.3747 27.3395 21.2299 27.5973 20.9721C27.8552 20.7143 28 20.3646 28 20C28 19.6354 27.8552 19.2857 27.5973 19.0279C27.3395 18.7701 26.9899 18.6253 26.6253 18.6253Z" fill="#F8F8F8"/>
</svg>
