<svg width="33" height="31" viewBox="0 0 33 31" fill="none" xmlns="http://www.w3.org/2000/svg">
<path opacity="0.7" fill-rule="evenodd" clip-rule="evenodd" d="M16.8726 30.2391C25.6623 30.2391 32.7878 23.6811 32.7878 15.5912C32.7878 7.50144 25.6623 0.943359 16.8726 0.943359C8.08296 0.943359 0.95752 7.50144 0.95752 15.5912C0.95752 23.6811 8.08296 30.2391 16.8726 30.2391Z" fill="white"/>
<path fill-rule="evenodd" clip-rule="evenodd" d="M19.3629 9.68471L12.1917 16.3147L19.1957 22.7905C19.2855 22.8735 19.4034 22.9152 19.5213 22.9152C19.6392 22.9152 19.7567 22.8735 19.847 22.7905C20.0266 22.6239 20.0266 22.3548 19.847 22.1882L13.4944 16.3147L20.0142 10.2869C20.1943 10.1204 20.1943 9.85124 20.0142 9.68471C19.8341 9.51818 19.543 9.51818 19.3629 9.68471Z" fill="black"/>
</svg>
