<svg width="15" height="24" viewBox="0 0 15 24" fill="none" xmlns="http://www.w3.org/2000/svg">
<path d="M10.7762 2.31094C10.7762 3.58854 9.74235 4.62214 8.46501 4.62214C7.18741 4.62214 6.15381 3.58854 6.15381 2.31094C6.15381 1.0336 7.18741 0 8.46501 0C9.74235 0 10.7762 1.0336 10.7762 2.31094Z" fill="#4A4A4A"/>
<path d="M13.8593 12.1786C13.4078 11.9754 10.4286 10.4949 10.4286 10.4949C10.4286 10.4949 9.37231 8.24264 8.82591 7.01038C8.31151 5.85011 7.94138 5.54797 7.20991 5.54797H6.08138C5.49018 5.54797 5.27364 5.76451 4.91231 5.96771L1.8611 8.56318C1.59444 8.71651 1.42297 8.94665 1.3195 9.27171L0.664835 13.6637C0.570168 14.3637 0.940302 14.6616 1.36004 14.7472C1.6987 14.8195 2.20857 14.648 2.3123 14.1557C2.39364 13.7496 3.01177 10.1562 3.01177 10.1562L5.00271 8.62611C4.67337 10.152 4.33924 11.8218 4.23071 12.3909C4.04111 13.3616 4.52404 14.0971 4.90777 14.6747C5.25524 15.1984 9.76031 22.2992 10.3518 23.0707C10.9473 23.8429 11.4894 24.2264 12.3153 23.7659C13.0102 23.3776 12.8929 22.4931 12.5094 21.8381C12.1259 21.1832 7.58031 13.7901 7.58031 13.7901L8.34298 10.4949C8.34298 10.4949 8.87098 11.2488 9.14191 11.673C9.27258 11.872 9.40831 11.953 9.76485 12.1469C10.1846 12.3773 12.2206 13.3027 12.8387 13.5827C13.3894 13.8264 14.071 13.9213 14.3422 13.4336C14.6174 12.9504 14.2702 12.3682 13.8593 12.1786Z" fill="#4A4A4A"/>
<path d="M3.802 15.167L2.8812 18.4126C2.8812 18.4126 0.958261 21.1934 0.42546 21.9697C0.0238593 22.5563 -0.278808 23.2697 0.407593 23.7889C1.17959 24.371 1.798 23.6126 2.19506 23.1611C2.56066 22.7505 4.05027 20.6694 4.47 20.1411C4.75 19.7846 4.90333 19.487 5.02547 19.1889C5.102 18.9905 5.40467 18.1689 5.59853 17.6361L3.802 15.167Z" fill="#4A4A4A"/>
</svg>
