<svg width="35" height="32" viewBox="0 0 35 32" fill="none" xmlns="http://www.w3.org/2000/svg">
<path fill-rule="evenodd" clip-rule="evenodd" d="M17.1432 31.1551C26.4823 31.1551 34.053 24.1871 34.053 15.5917C34.053 6.99628 26.4823 0.0283203 17.1432 0.0283203C7.80418 0.0283203 0.233398 6.99628 0.233398 15.5917C0.233398 24.1871 7.80418 31.1551 17.1432 31.1551Z" fill="white"/>
<path fill-rule="evenodd" clip-rule="evenodd" d="M7.94229 17.1106C8.90366 17.1106 9.683 16.3607 9.683 15.4357C9.683 14.5106 8.90366 13.7607 7.94229 13.7607C6.98091 13.7607 6.20157 14.5106 6.20157 15.4357C6.20157 16.3607 6.98091 17.1106 7.94229 17.1106Z" fill="black"/>
<path fill-rule="evenodd" clip-rule="evenodd" d="M16.8945 17.1106C17.8559 17.1106 18.6353 16.3607 18.6353 15.4357C18.6353 14.5106 17.8559 13.7607 16.8945 13.7607C15.9332 13.7607 15.1538 14.5106 15.1538 15.4357C15.1538 16.3607 15.9332 17.1106 16.8945 17.1106Z" fill="black"/>
<path fill-rule="evenodd" clip-rule="evenodd" d="M25.8468 17.1106C26.8082 17.1106 27.5875 16.3607 27.5875 15.4357C27.5875 14.5106 26.8082 13.7607 25.8468 13.7607C24.8854 13.7607 24.1061 14.5106 24.1061 15.4357C24.1061 16.3607 24.8854 17.1106 25.8468 17.1106Z" fill="black"/>
</svg>
